<?xml version="1.0" encoding="utf-8"?>
<!-- Generator: Adobe Illustrator 22.0.1, SVG Export Plug-In . SVG Version: 6.00 Build 0)  -->
<svg version="1.1" id="Layer_1" xmlns="http://www.w3.org/2000/svg" xmlns:xlink="http://www.w3.org/1999/xlink" x="0px" y="0px"
	 width="190px" height="60px" viewBox="0 0 190 60" style="enable-background:new 0 0 190 60;" xml:space="preserve">
<style type="text/css">
	.st0{fill:#010101;}
	.st1{fill:#FFFFFF;}
	.st2{fill:#AAC148;}
</style>
<path class="st0" d="M180,60H10C4.5,60,0,55.5,0,50V10C0,4.5,4.5,0,10,0h170c5.5,0,10,4.5,10,10v40C190,55.5,185.5,60,180,60z"/>
<g>
	<g>
		<path class="st1" d="M79,14.7c1.1,0.6,1.9,1.4,2.5,2.4s0.9,2.2,0.9,3.5s-0.3,2.4-0.9,3.5c-0.6,1-1.5,1.8-2.5,2.4
			c-1.1,0.6-2.3,0.9-3.6,0.9h-5.5V13.8h5.5C76.7,13.8,77.9,14.1,79,14.7z M78,25c0.8-0.4,1.4-1,1.8-1.8s0.7-1.6,0.7-2.6
			s-0.2-1.8-0.7-2.6c-0.5-0.8-1.1-1.4-1.9-1.8s-1.7-0.7-2.6-0.7h-3.6v10.2h3.7C76.4,25.7,77.3,25.5,78,25z"/>
		<path class="st1" d="M91.9,17.7c0.8,0.4,1.4,1.1,1.9,1.8c0.4,0.8,0.7,1.7,0.7,2.7s-0.2,1.9-0.7,2.7c-0.4,0.8-1.1,1.4-1.9,1.8
			s-1.7,0.7-2.7,0.7s-2-0.2-2.7-0.7c-0.8-0.4-1.4-1.1-1.9-1.8c-0.4-0.8-0.7-1.7-0.7-2.7s0.2-1.9,0.7-2.7c0.4-0.8,1.1-1.4,1.9-1.8
			s1.7-0.7,2.7-0.7C90.2,17,91.1,17.3,91.9,17.7z M87.4,19.1c-0.5,0.3-0.9,0.7-1.2,1.3c-0.3,0.5-0.4,1.2-0.4,1.9
			c0,0.7,0.1,1.3,0.4,1.9s0.7,1,1.2,1.3s1.1,0.5,1.8,0.5c0.7,0,1.3-0.2,1.8-0.5s0.9-0.7,1.2-1.3c0.3-0.6,0.4-1.2,0.4-1.9
			c0-0.7-0.1-1.3-0.4-1.9s-0.7-1-1.2-1.3s-1.1-0.5-1.8-0.5S87.9,18.8,87.4,19.1z"/>
		<path class="st1" d="M94.9,17.1h1.9l2.9,8.5l2.8-8.5h1.9l2.9,8.5l2.8-8.5h1.9l-3.8,10.3h-1.9l-2.8-8.1l-2.8,8.1h-1.9L94.9,17.1z"
			/>
		<path class="st1" d="M122.3,18.1c0.7,0.7,1,1.7,1,2.9v6.3h-1.8v-5.9c0-0.9-0.2-1.5-0.7-2s-1.2-0.7-2-0.7c-0.9,0-1.7,0.3-2.2,0.9
			s-0.9,1.3-1,2.2v5.5h-1.8V17.1h1.8v2.2c0.7-1.5,2-2.2,3.9-2.2C120.7,17,121.6,17.4,122.3,18.1z"/>
		<path class="st1" d="M126.7,13h1.8v14.4h-1.8V13z"/>
		<path class="st1" d="M139.1,17.7c0.8,0.4,1.4,1.1,1.9,1.8c0.4,0.8,0.7,1.7,0.7,2.7s-0.2,1.9-0.7,2.7c-0.4,0.8-1.1,1.4-1.9,1.8
			c-0.8,0.4-1.7,0.7-2.7,0.7s-2-0.2-2.7-0.7c-0.8-0.4-1.4-1.1-1.9-1.8c-0.4-0.8-0.7-1.7-0.7-2.7s0.2-1.9,0.7-2.7
			c0.4-0.8,1.1-1.4,1.9-1.8c0.8-0.4,1.7-0.7,2.7-0.7C137.4,17,138.3,17.3,139.1,17.7z M134.6,19.1c-0.5,0.3-0.9,0.7-1.2,1.3
			c-0.3,0.5-0.4,1.2-0.4,1.9c0,0.7,0.1,1.3,0.4,1.9c0.3,0.6,0.7,1,1.2,1.3s1.1,0.5,1.8,0.5s1.3-0.2,1.8-0.5s0.9-0.7,1.2-1.3
			c0.3-0.6,0.4-1.2,0.4-1.9c0-0.7-0.1-1.3-0.4-1.9c-0.3-0.6-0.7-1-1.2-1.3s-1.1-0.5-1.8-0.5C135.7,18.6,135.1,18.8,134.6,19.1z"/>
		<path class="st1" d="M150.4,27.4V26c-0.8,1-2,1.5-3.6,1.5c-0.7,0-1.3-0.1-1.9-0.4c-0.5-0.3-1-0.6-1.2-1.1c-0.3-0.5-0.4-1-0.4-1.6
			c0-0.9,0.3-1.6,1-2.2c0.7-0.5,1.6-0.8,2.8-0.8h3.3v-0.5c0-0.7-0.2-1.3-0.7-1.7c-0.4-0.4-1.1-0.6-2-0.6c-1,0-2.1,0.4-3.2,1.1
			l-0.8-1.2c0.7-0.5,1.4-0.8,2-1s1.4-0.3,2.2-0.3c1.3,0,2.3,0.3,3,0.9s1.1,1.5,1.1,2.6v6.8C152.2,27.4,150.4,27.4,150.4,27.4z
			 M149.3,25.3c0.6-0.4,0.9-0.9,1.1-1.6v-1h-3c-0.8,0-1.4,0.1-1.8,0.4c-0.4,0.2-0.6,0.6-0.6,1.2c0,0.5,0.2,1,0.6,1.3
			c0.4,0.3,0.9,0.5,1.6,0.5C148,26,148.8,25.8,149.3,25.3z"/>
		<path class="st1" d="M165,13v14.4h-1.8v-2c-0.4,0.7-0.9,1.2-1.6,1.6c-0.7,0.4-1.4,0.6-2.3,0.6c-1,0-1.8-0.2-2.6-0.7
			c-0.7-0.4-1.3-1.1-1.7-1.9s-0.6-1.7-0.6-2.7s0.2-1.9,0.6-2.7c0.4-0.8,1-1.4,1.7-1.8s1.6-0.7,2.6-0.7c0.9,0,1.7,0.2,2.3,0.5
			c0.7,0.4,1.2,0.9,1.6,1.6V13H165z M161.5,25.5c0.5-0.3,0.9-0.7,1.2-1.3c0.3-0.6,0.4-1.2,0.4-1.9c0-0.7-0.1-1.3-0.4-1.9
			c-0.3-0.6-0.7-1-1.2-1.3s-1.1-0.5-1.8-0.5s-1.3,0.2-1.8,0.5s-0.9,0.8-1.2,1.3c-0.3,0.6-0.4,1.2-0.4,1.9s0.1,1.3,0.4,1.9
			c0.3,0.6,0.7,1,1.2,1.3s1.1,0.5,1.8,0.5S161,25.8,161.5,25.5z"/>
	</g>
	<g>
		<path class="st1" d="M76.5,44.9l-0.8-1.8h-4L71,44.9h-1.1l3.4-7.6h1.1l3.3,7.6H76.5z M72.2,42.2h3.2l-1.6-3.7L72.2,42.2z"/>
		<path class="st1" d="M83.3,39.6c0.4,0.2,0.7,0.6,1,1c0.2,0.4,0.3,0.9,0.3,1.5s-0.1,1.1-0.3,1.5s-0.5,0.8-1,1
			c-0.4,0.2-0.9,0.4-1.4,0.4s-0.9-0.1-1.3-0.3s-0.7-0.5-0.9-0.9V47h-1v-7.8h1v1.1c0.2-0.4,0.5-0.7,0.9-0.9s0.8-0.3,1.3-0.3
			C82.4,39.2,82.8,39.3,83.3,39.6z M82.6,43.8c0.3-0.2,0.5-0.4,0.7-0.7s0.2-0.7,0.2-1c0-0.4-0.1-0.7-0.2-1c-0.2-0.3-0.4-0.5-0.7-0.7
			s-0.6-0.3-1-0.3s-0.7,0.1-1,0.3s-0.5,0.4-0.7,0.7s-0.2,0.7-0.2,1c0,0.4,0.1,0.7,0.2,1.1c0.2,0.3,0.4,0.5,0.7,0.7s0.6,0.3,1,0.3
			S82.3,44,82.6,43.8z"/>
		<path class="st1" d="M90.6,39.6c0.4,0.2,0.7,0.6,1,1c0.2,0.4,0.3,0.9,0.3,1.5s-0.1,1.1-0.3,1.5s-0.5,0.8-1,1
			c-0.4,0.2-0.9,0.4-1.4,0.4s-0.9-0.1-1.3-0.3s-0.7-0.5-0.9-0.9V47h-1v-7.8h1v1.1c0.2-0.4,0.5-0.7,0.9-0.9s0.8-0.3,1.3-0.3
			C89.7,39.2,90.1,39.3,90.6,39.6z M89.9,43.8c0.3-0.2,0.5-0.4,0.7-0.7s0.2-0.7,0.2-1c0-0.4-0.1-0.7-0.2-1c-0.2-0.3-0.4-0.5-0.7-0.7
			s-0.6-0.3-1-0.3s-0.7,0.1-1,0.3s-0.5,0.4-0.7,0.7s-0.2,0.7-0.2,1c0,0.4,0.1,0.7,0.2,1.1c0.2,0.3,0.4,0.5,0.7,0.7
			c0.3,0.2,0.6,0.3,1,0.3S89.6,44,89.9,43.8z"/>
		<path class="st1" d="M97.6,38c-0.2,0.2-0.3,0.4-0.3,0.7v0.7h1.6v0.8h-1.6v4.7h-1v-4.7h-0.7v-0.8h0.7v-0.6c0-0.4,0.1-0.8,0.3-1.1
			c0.2-0.3,0.4-0.5,0.7-0.7c0.3-0.1,0.6-0.2,0.9-0.2s0.6,0.1,1,0.3L99,37.9c-0.3-0.1-0.5-0.2-0.7-0.2C98,37.8,97.7,37.8,97.6,38z"/>
		<path class="st1" d="M103.6,39.6c0.4,0.2,0.8,0.6,1,1s0.4,0.9,0.4,1.5s-0.1,1.1-0.4,1.5c-0.2,0.4-0.6,0.8-1,1s-0.9,0.4-1.5,0.4
			s-1.1-0.1-1.5-0.4s-0.8-0.6-1-1s-0.4-0.9-0.4-1.5s0.1-1.1,0.4-1.5c0.2-0.4,0.6-0.8,1-1s1-0.4,1.5-0.4
			C102.6,39.2,103.1,39.3,103.6,39.6z M101.1,40.3c-0.3,0.2-0.5,0.4-0.7,0.7s-0.2,0.7-0.2,1c0,0.4,0.1,0.7,0.2,1.1
			c0.2,0.3,0.4,0.5,0.7,0.7c0.3,0.2,0.6,0.3,1,0.3s0.7-0.1,1-0.3s0.5-0.4,0.7-0.7s0.2-0.7,0.2-1.1c0-0.4-0.1-0.7-0.2-1
			c-0.2-0.3-0.4-0.5-0.7-0.7c-0.3-0.2-0.6-0.3-1-0.3C101.7,40.1,101.4,40.2,101.1,40.3z"/>
		<path class="st1" d="M108.2,39.5c0.3-0.2,0.8-0.3,1.2-0.3v1c-0.6,0-1.1,0.1-1.4,0.5c-0.4,0.3-0.6,0.8-0.6,1.3v3h-1v-5.7h1v1.2
			C107.6,40.1,107.8,39.7,108.2,39.5z"/>
		<path class="st1" d="M119,44.9l-0.8-1.8h-4l-0.8,1.8h-1.1l3.4-7.6h1.1l3.3,7.6H119z M114.7,42.2h3.2l-1.6-3.7L114.7,42.2z"/>
		<path class="st1" d="M125.9,39.8c0.4,0.4,0.6,0.9,0.6,1.6v3.5h-1v-3.3c0-0.5-0.1-0.9-0.4-1.1c-0.3-0.3-0.6-0.4-1.1-0.4
			s-0.9,0.2-1.2,0.5c-0.3,0.3-0.5,0.7-0.5,1.2v3.1h-1v-5.7h1v1.2c0.4-0.8,1.1-1.2,2.2-1.2C125,39.2,125.5,39.4,125.9,39.8z"/>
		<path class="st1" d="M133.6,36.9v8h-1v-1.1c-0.2,0.4-0.5,0.7-0.9,0.9s-0.8,0.3-1.3,0.3s-1-0.1-1.4-0.4c-0.4-0.2-0.7-0.6-1-1
			c-0.2-0.4-0.3-0.9-0.3-1.5s0.1-1.1,0.3-1.5c0.2-0.4,0.6-0.8,1-1s0.9-0.4,1.4-0.4s0.9,0.1,1.3,0.3c0.4,0.2,0.7,0.5,0.9,0.9V37
			L133.6,36.9L133.6,36.9z M131.7,43.9c0.3-0.2,0.5-0.4,0.7-0.7s0.2-0.7,0.2-1c0-0.4-0.1-0.7-0.2-1.1c-0.2-0.3-0.4-0.5-0.7-0.7
			s-0.6-0.3-1-0.3s-0.7,0.1-1,0.3s-0.5,0.4-0.7,0.7s-0.2,0.7-0.2,1c0,0.4,0.1,0.7,0.2,1s0.4,0.5,0.7,0.7s0.6,0.3,1,0.3
			S131.4,44,131.7,43.9z"/>
		<path class="st1" d="M137.4,39.5c0.3-0.2,0.8-0.3,1.2-0.3v1c-0.6,0-1.1,0.1-1.4,0.5c-0.4,0.3-0.6,0.8-0.6,1.3v3h-1v-5.7h1v1.2
			C136.8,40.1,137.1,39.7,137.4,39.5z"/>
		<path class="st1" d="M143.6,39.6c0.4,0.2,0.8,0.6,1,1s0.4,0.9,0.4,1.5s-0.1,1.1-0.4,1.5c-0.2,0.4-0.6,0.8-1,1s-0.9,0.4-1.5,0.4
			s-1.1-0.1-1.5-0.4c-0.4-0.2-0.8-0.6-1-1s-0.4-0.9-0.4-1.5s0.1-1.1,0.4-1.5c0.2-0.4,0.6-0.8,1-1s1-0.4,1.5-0.4
			C142.7,39.2,143.2,39.3,143.6,39.6z M141.1,40.3c-0.3,0.2-0.5,0.4-0.7,0.7s-0.2,0.7-0.2,1c0,0.4,0.1,0.7,0.2,1.1
			c0.2,0.3,0.4,0.5,0.7,0.7s0.6,0.3,1,0.3s0.7-0.1,1-0.3s0.5-0.4,0.7-0.7s0.2-0.7,0.2-1.1c0-0.4-0.1-0.7-0.2-1
			c-0.2-0.3-0.4-0.5-0.7-0.7s-0.6-0.3-1-0.3C141.7,40.1,141.4,40.2,141.1,40.3z"/>
		<path class="st1" d="M147.4,37.1c0.1,0.1,0.2,0.3,0.2,0.5s-0.1,0.3-0.2,0.5c-0.1,0.1-0.3,0.2-0.4,0.2c-0.2,0-0.3-0.1-0.4-0.2
			c-0.1-0.1-0.2-0.3-0.2-0.5s0.1-0.3,0.2-0.5c0.1-0.1,0.3-0.2,0.4-0.2C147.1,37,147.3,37,147.4,37.1z M146.4,39.2h1v5.7h-1V39.2z"/>
		<path class="st1" d="M154.7,36.9v8h-1v-1.1c-0.2,0.4-0.5,0.7-0.9,0.9S152,45,151.5,45s-1-0.1-1.4-0.4c-0.4-0.2-0.7-0.6-1-1
			c-0.2-0.4-0.3-0.9-0.3-1.5s0.1-1.1,0.3-1.5s0.6-0.8,1-1s0.9-0.4,1.4-0.4s0.9,0.1,1.3,0.3c0.4,0.2,0.7,0.5,0.9,0.9V37L154.7,36.9
			L154.7,36.9z M152.8,43.9c0.3-0.2,0.5-0.4,0.7-0.7s0.2-0.7,0.2-1c0-0.4-0.1-0.7-0.2-1.1c-0.2-0.3-0.4-0.5-0.7-0.7s-0.6-0.3-1-0.3
			s-0.7,0.1-1,0.3s-0.5,0.4-0.7,0.7s-0.2,0.7-0.2,1c0,0.4,0.1,0.7,0.2,1s0.4,0.5,0.7,0.7s0.6,0.3,1,0.3
			C152.1,44.1,152.5,44,152.8,43.9z"/>
	</g>
</g>
<g>
	<path class="st2" d="M44.6,24.9H29.4c-0.3,0-0.6,0.3-0.6,0.6v12.8c0,0.3,0.3,0.6,0.6,0.6h2.7v4.3c0,1,0.8,1.8,1.8,1.8l0,0
		c1,0,1.8-0.8,1.8-1.8v-4.3h2.5v4.3c0,1,0.8,1.8,1.8,1.8l0,0c1,0,1.8-0.8,1.8-1.8v-4.3h2.8c0.3,0,0.6-0.3,0.6-0.6V25.5
		C45.2,25.2,44.9,24.9,44.6,24.9z"/>
	<path class="st2" d="M26.2,24.9L26.2,24.9c-1,0-1.8,0.8-1.8,1.8V34c0,1,0.8,1.8,1.8,1.8l0,0c1,0,1.8-0.8,1.8-1.8v-7.3
		C28,25.7,27.2,24.9,26.2,24.9z"/>
	<path class="st2" d="M47.8,24.9L47.8,24.9c-1,0-1.8,0.8-1.8,1.8V34c0,1,0.8,1.8,1.8,1.8l0,0c1,0,1.8-0.8,1.8-1.8v-7.3
		C49.6,25.7,48.8,24.9,47.8,24.9z"/>
	<path class="st2" d="M29.5,24h14.9c0.4,0,0.7-0.4,0.6-0.7c-0.5-2.4-2-4.3-4-5.5l1.3-2.3c0.1-0.2,0-0.4-0.1-0.4
		c-0.2-0.1-0.4,0-0.4,0.1l-1.3,2.3c-1.1-0.5-2.2-0.8-3.5-0.8c-1.2,0-2.4,0.3-3.5,0.8l-1.3-2.3C32.1,15,31.9,15,31.8,15
		c-0.2,0.1-0.2,0.3-0.1,0.4l1.3,2.3c-2,1.1-3.5,3.1-4,5.5C28.8,23.7,29.1,24,29.5,24z M41.4,20.6c0,0.4-0.3,0.7-0.7,0.7
		c-0.4,0-0.7-0.3-0.7-0.7c0-0.4,0.3-0.7,0.7-0.7C41.1,19.9,41.4,20.2,41.4,20.6z M33.2,19.9c0.4,0,0.7,0.3,0.7,0.7
		c0,0.4-0.3,0.7-0.7,0.7c-0.4,0-0.7-0.3-0.7-0.7C32.5,20.2,32.8,19.9,33.2,19.9z"/>
</g>
</svg>
