<?xml version="1.0" encoding="utf-8"?>
<!-- Generator: Adobe Illustrator 22.0.1, SVG Export Plug-In . SVG Version: 6.00 Build 0)  -->
<svg version="1.1" id="Layer_1" xmlns="http://www.w3.org/2000/svg" xmlns:xlink="http://www.w3.org/1999/xlink" x="0px" y="0px"
	 width="190px" height="60px" viewBox="0 0 190 60" enable-background="new 0 0 190 60" xml:space="preserve">
<path fill="#010101" d="M180,60H10C4.4772,60,0,55.5228,0,50V10C0,4.4772,4.4772,0,10,0h170c5.5228,0,10,4.4772,10,10v40
	C190,55.5228,185.5228,60,180,60z"/>
<g>
	<g>
		<path fill="#FFFFFF" d="M78.9917,14.6681c1.0682,0.5889,1.9057,1.4011,2.5146,2.4367c0.6078,1.0356,0.9123,2.1944,0.9123,3.4759
			s-0.3076,2.4398-0.9218,3.4754c-0.6152,1.0361-1.4601,1.8483-2.5341,2.4372c-1.0745,0.5889-2.2786,0.8833-3.6118,0.8833H69.875
			V13.7843h5.5344C76.7294,13.7843,77.924,14.0787,78.9917,14.6681z M78.0209,25.0269c0.7701-0.4398,1.3785-1.0482,1.8251-1.8251
			c0.4467-0.7764,0.67-1.6439,0.67-2.6021c0-0.9708-0.2265-1.8446-0.6795-2.621c-0.4535-0.7769-1.0714-1.3885-1.8546-1.8351
			c-0.7833-0.4467-1.6539-0.67-2.6115-0.67h-3.6313v10.2139h3.7087C76.3928,25.6874,77.2503,25.4672,78.0209,25.0269z"/>
		<path fill="#FFFFFF" d="M91.9041,17.7068c0.7964,0.4403,1.418,1.0519,1.8646,1.8346c0.4456,0.7838,0.669,1.6798,0.669,2.6895
			s-0.2233,1.9094-0.669,2.699c-0.4467,0.7896-1.0682,1.4048-1.8646,1.8446c-0.7964,0.4403-1.7056,0.6605-2.7285,0.6605
			c-1.0356,0-1.951-0.2202-2.7474-0.6605c-0.7954-0.4398-1.4169-1.0514-1.8636-1.8346c-0.4467-0.7833-0.67-1.6861-0.67-2.709
			c0-1.0097,0.2233-1.9057,0.67-2.6895c0.4467-0.7827,1.0682-1.3943,1.8636-1.8346c0.7964-0.4398,1.7119-0.6605,2.7474-0.6605
			C90.1985,17.0463,91.1077,17.267,91.9041,17.7068z M87.3794,19.0853c-0.5236,0.3108-0.9313,0.7411-1.2231,1.2916
			c-0.2908,0.5499-0.4372,1.1746-0.4372,1.8736c0,0.7121,0.1464,1.3463,0.4372,1.9031c0.2918,0.5568,0.6995,0.9871,1.2231,1.291
			c0.5246,0.3045,1.123,0.4562,1.7962,0.4562c0.6605,0,1.2526-0.1517,1.7772-0.4562c0.5246-0.3039,0.9323-0.7343,1.2231-1.291
			c0.2918-0.5568,0.4372-1.1909,0.4372-1.9031c0-0.699-0.1454-1.3237-0.4372-1.8736c-0.2908-0.5504-0.6984-0.9808-1.2231-1.2916
			c-0.5246-0.3108-1.1167-0.4662-1.7772-0.4662C88.5024,18.6191,87.9041,18.7745,87.3794,19.0853z"/>
		<path fill="#FFFFFF" d="M94.9033,17.1048h1.8836l2.8739,8.4857l2.8349-8.4857h1.8836l2.8549,8.4857l2.8349-8.4857h1.8636
			l-3.7862,10.2718h-1.8836l-2.8349-8.0775l-2.8349,8.0775h-1.8836L94.9033,17.1048z"/>
		<path fill="#FFFFFF" d="M122.3019,18.1045c0.6869,0.7058,1.0292,1.6798,1.0292,2.9223v6.3498h-1.8056v-5.8641
			c0-0.867-0.2423-1.5439-0.7279-2.029c-0.4856-0.4856-1.1557-0.7285-2.01-0.7285c-0.9186,0.0132-1.6666,0.3076-2.2428,0.8839
			s-0.9028,1.3237-0.9808,2.2423v5.4954h-1.8056V17.1048h1.8056v2.1749c0.6869-1.4627,1.9879-2.207,3.9031-2.2334
			C120.6711,17.0463,121.6161,17.3992,122.3019,18.1045z"/>
		<path fill="#FFFFFF" d="M126.6506,12.9689h1.8067v14.4078h-1.8067V12.9689z"/>
		<path fill="#FFFFFF" d="M139.0878,17.7068c0.7964,0.4403,1.418,1.0519,1.8646,1.8346c0.4456,0.7838,0.669,1.6798,0.669,2.6895
			s-0.2233,1.9094-0.669,2.699c-0.4467,0.7896-1.0682,1.4048-1.8646,1.8446c-0.7964,0.4403-1.7056,0.6605-2.7285,0.6605
			c-1.0356,0-1.951-0.2202-2.7474-0.6605c-0.7954-0.4398-1.4169-1.0514-1.8636-1.8346c-0.4467-0.7833-0.67-1.6861-0.67-2.709
			c0-1.0097,0.2233-1.9057,0.67-2.6895c0.4467-0.7827,1.0682-1.3943,1.8636-1.8346c0.7964-0.4398,1.7119-0.6605,2.7474-0.6605
			C137.3823,17.0463,138.2914,17.267,139.0878,17.7068z M134.5632,19.0853c-0.5236,0.3108-0.9313,0.7411-1.2231,1.2916
			c-0.2908,0.5499-0.4372,1.1746-0.4372,1.8736c0,0.7121,0.1464,1.3463,0.4372,1.9031c0.2918,0.5568,0.6995,0.9871,1.2231,1.291
			c0.5246,0.3045,1.123,0.4562,1.7962,0.4562c0.6605,0,1.2526-0.1517,1.7772-0.4562c0.5246-0.3039,0.9323-0.7343,1.2231-1.291
			c0.2918-0.5568,0.4372-1.1909,0.4372-1.9031c0-0.699-0.1454-1.3237-0.4372-1.8736c-0.2908-0.5504-0.6985-0.9808-1.2231-1.2916
			c-0.5246-0.3108-1.1167-0.4662-1.7772-0.4662C135.6862,18.6191,135.0878,18.7745,134.5632,19.0853z"/>
		<path fill="#FFFFFF" d="M150.4179,27.3766v-1.4369c-0.7638,1.0097-1.9615,1.5144-3.5923,1.5144
			c-0.7122,0-1.3369-0.1359-1.8741-0.4077c-0.5373-0.2718-0.9513-0.6468-1.242-1.1262c-0.2918-0.4788-0.4372-1.0161-0.4372-1.6118
			c0-0.9186,0.3392-1.6471,1.0198-2.1844c0.6795-0.5367,1.6276-0.8122,2.8444-0.8249h3.2615v-0.4856
			c0-0.7248-0.2233-1.2847-0.6689-1.6798c-0.4467-0.3945-1.0977-0.592-1.9521-0.592c-1.0356,0-2.0911,0.3687-3.1646,1.1067
			l-0.7574-1.2426c0.7374-0.4788,1.4201-0.8254,2.0479-1.0387c0.6279-0.2139,1.3758-0.3208,2.2428-0.3208
			c1.2821,0,2.2723,0.3145,2.9708,0.9418c0.6995,0.6284,1.0556,1.5049,1.0682,2.631l0.02,6.7575H150.4179z M149.3402,25.3476
			c0.5889-0.4077,0.9418-0.9481,1.0577-1.6213v-1.0292h-3.0098c-0.8154,0-1.4201,0.1233-1.8151,0.3687
			c-0.3951,0.246-0.5921,0.6347-0.5921,1.1651c0,0.5309,0.2002,0.9513,0.6015,1.2621c0.4014,0.3108,0.9386,0.4662,1.6118,0.4662
			C148.036,25.9592,148.7513,25.7553,149.3402,25.3476z"/>
		<path fill="#FFFFFF" d="M165,12.9689v14.4078h-1.8056v-2.039c-0.3887,0.6863-0.9091,1.2136-1.5633,1.5828
			c-0.6532,0.3687-1.4138,0.5531-2.2808,0.5531c-0.9713,0-1.8288-0.2233-2.5736-0.6695c-0.7437-0.4467-1.3232-1.0682-1.7372-1.8641
			c-0.4151-0.7964-0.6216-1.7056-0.6216-2.7285c0-1.0097,0.2065-1.9057,0.6216-2.689c0.414-0.7833,0.9934-1.3948,1.7372-1.8351
			c0.7448-0.4398,1.596-0.6605,2.5536-0.6605c0.8807,0,1.6508,0.1817,2.3113,0.5441c0.6595,0.3624,1.1778,0.8865,1.5528,1.5728
			v-6.1749H165z M161.5151,25.454c0.5236-0.3102,0.9344-0.7437,1.2326-1.3005c0.2981-0.5568,0.4467-1.1846,0.4467-1.8836
			c0-0.7121-0.1485-1.3463-0.4467-1.9031c-0.2981-0.5562-0.709-0.9903-1.2326-1.301c-0.5246-0.3108-1.123-0.4662-1.7962-0.4662
			s-1.2726,0.1591-1.7962,0.4762c-0.5246,0.3171-0.9355,0.7543-1.2336,1.3105c-0.2971,0.5568-0.4467,1.1846-0.4467,1.8836
			s0.1496,1.3268,0.4467,1.8836c0.2981,0.5568,0.709,0.9903,1.2336,1.3005c0.5236,0.3108,1.123,0.4662,1.7962,0.4662
			S160.9905,25.7648,161.5151,25.454z"/>
	</g>
	<g>
		<path fill="#FFFFFF" d="M76.5279,44.9384l-0.7983-1.8336h-3.9807l-0.7875,1.8336H69.872l3.3548-7.5511h1.0789l3.3442,7.5511
			H76.5279z M72.1589,42.166h3.1716l-1.5966-3.6679L72.1589,42.166z"/>
		<path fill="#FFFFFF" d="M83.2486,39.5662c0.417,0.2446,0.7407,0.5864,0.9707,1.0248c0.23,0.4389,0.3453,0.9423,0.3453,1.51
			c0,0.5613-0.113,1.0593-0.34,1.4942c-0.2265,0.4354-0.5466,0.7731-0.9598,1.0143c-0.4138,0.2411-0.8864,0.3611-1.4187,0.3611
			c-0.4817,0-0.906-0.1007-1.273-0.302c-0.3667-0.2013-0.6543-0.4887-0.863-0.8627v3.2254h-1.0032v-7.7999H79.71v1.1331
			c0.2086-0.374,0.4946-0.6619,0.8577-0.8633s0.7822-0.302,1.2569-0.302C82.3566,39.1993,82.8313,39.3216,83.2486,39.5662z
			 M82.6173,43.8381c0.2912-0.1727,0.518-0.4138,0.6798-0.7228s0.2426-0.6578,0.2426-1.0465c0-0.381-0.0831-0.7263-0.2482-1.0353
			c-0.1653-0.3096-0.3921-0.5502-0.6795-0.7228c-0.2879-0.1727-0.6151-0.2593-0.9818-0.2593s-0.6959,0.0866-0.9871,0.2593
			c-0.2912,0.1727-0.5197,0.4132-0.6851,0.7228c-0.1653,0.309-0.2482,0.6543-0.2482,1.0353c0,0.3956,0.0828,0.7462,0.2482,1.0517
			c0.1653,0.3061,0.3939,0.5449,0.6851,0.7175c0.2912,0.1727,0.6204,0.2587,0.9871,0.2587S82.3262,44.0108,82.6173,43.8381z"/>
		<path fill="#FFFFFF" d="M90.5623,39.5662c0.4173,0.2446,0.7409,0.5864,0.971,1.0248c0.23,0.4389,0.3453,0.9423,0.3453,1.51
			c0,0.5613-0.113,1.0593-0.34,1.4942c-0.2265,0.4354-0.5466,0.7731-0.9598,1.0143c-0.4138,0.2411-0.8867,0.3611-1.4187,0.3611
			c-0.4817,0-0.906-0.1007-1.273-0.302c-0.3664-0.2013-0.6543-0.4887-0.8627-0.8627v3.2254h-1.0037v-7.7999h1.0037v1.1331
			c0.2084-0.374,0.494-0.6619,0.8574-0.8633c0.3629-0.2013,0.7819-0.302,1.2566-0.302
			C89.671,39.1993,90.1456,39.3216,90.5623,39.5662z M89.9314,43.8381c0.2915-0.1727,0.518-0.4138,0.6795-0.7228
			c0.1621-0.309,0.2429-0.6578,0.2429-1.0465c0-0.381-0.0825-0.7263-0.2482-1.0353c-0.1656-0.3096-0.3921-0.5502-0.6795-0.7228
			c-0.288-0.1727-0.6151-0.2593-0.9815-0.2593c-0.367,0-0.6959,0.0866-0.9873,0.2593c-0.2915,0.1727-0.5197,0.4132-0.6848,0.7228
			c-0.1656,0.309-0.2482,0.6543-0.2482,1.0353c0,0.3956,0.0825,0.7462,0.2482,1.0517c0.165,0.3061,0.3933,0.5449,0.6848,0.7175
			c0.2915,0.1727,0.6204,0.2587,0.9873,0.2587C89.311,44.0968,89.64,44.0108,89.9314,43.8381z"/>
		<path fill="#FFFFFF" d="M97.5639,38.0018c-0.1727,0.1586-0.2593,0.3851-0.2593,0.6795v0.7445h1.575v0.7661h-1.575v4.7465h-1.0032
			v-4.7465H95.557v-0.7661h0.7445v-0.6145c0-0.4173,0.0878-0.7714,0.2645-1.0628c0.1762-0.2915,0.4079-0.5104,0.6959-0.6578
			c0.2874-0.1475,0.5964-0.2212,0.9277-0.2212c0.316,0,0.6473,0.086,0.992,0.2587l-0.237,0.82
			c-0.2587-0.1223-0.5033-0.1832-0.7333-0.1832C97.9519,37.7648,97.7366,37.8438,97.5639,38.0018z"/>
		<path fill="#FFFFFF" d="M103.5775,39.5662c0.4425,0.2446,0.7878,0.5841,1.0359,1.0195c0.2476,0.4349,0.3716,0.9329,0.3716,1.4942
			c0,0.5607-0.1241,1.0605-0.3716,1.4995c-0.2482,0.4384-0.5935,0.7802-1.0359,1.0248c-0.4425,0.2441-0.9475,0.3664-1.5158,0.3664
			c-0.5753,0-1.0839-0.1223-1.5264-0.3664c-0.4419-0.2446-0.7872-0.5847-1.0353-1.0195c-0.2481-0.4354-0.3722-0.937-0.3722-1.5047
			c0-0.5613,0.1241-1.0593,0.3722-1.4942c0.2482-0.4354,0.5935-0.7749,1.0353-1.0195c0.4425-0.2446,0.9511-0.367,1.5264-0.367
			C102.63,39.1993,103.1351,39.3216,103.5775,39.5662z M101.0638,40.3323c-0.2909,0.1721-0.5174,0.4114-0.6795,0.717
			c-0.1615,0.3061-0.2429,0.6526-0.2429,1.0412c0,0.3956,0.0814,0.748,0.2429,1.057c0.1621,0.3096,0.3886,0.5484,0.6795,0.7175
			c0.2915,0.1691,0.6239,0.2534,0.9979,0.2534c0.367,0,0.6959-0.0843,0.9873-0.2534c0.2915-0.1691,0.518-0.4079,0.6795-0.7175
			c0.1621-0.309,0.2429-0.6614,0.2429-1.057c0-0.3886-0.0808-0.7351-0.2429-1.0412c-0.1615-0.3055-0.388-0.5449-0.6795-0.717
			c-0.2915-0.1727-0.6204-0.2593-0.9873-0.2593C101.6877,40.0731,101.3553,40.1597,101.0638,40.3323z"/>
		<path fill="#FFFFFF" d="M108.1889,39.5282c0.3453-0.2119,0.7556-0.3213,1.2302-0.3289v0.971
			c-0.5829-0.0217-1.0541,0.1293-1.4134,0.453c-0.3594,0.3237-0.5648,0.7591-0.6151,1.3051v3.01h-1.0032v-5.7069h1.0032v1.2302
			C107.5778,40.0514,107.8441,39.7406,108.1889,39.5282z"/>
		<path fill="#FFFFFF" d="M114.2786,37.1391c0.1188,0.1223,0.1779,0.2768,0.1779,0.4635c0,0.1873-0.0591,0.3418-0.1779,0.4641
			c-0.1188,0.1223-0.2681,0.1832-0.4477,0.1832s-0.3289-0.0609-0.4477-0.1832c-0.1182-0.1223-0.1779-0.2768-0.1779-0.4641
			c0-0.1867,0.0597-0.3412,0.1779-0.4635c0.1188-0.1223,0.2681-0.1838,0.4477-0.1838S114.1597,37.0168,114.2786,37.1391z
			 M113.3345,39.2315h1.0032v5.7069h-1.0032V39.2315z"/>
		<path fill="#FFFFFF" d="M121.6898,37.8292c0.6075,0.3383,1.0874,0.8001,1.4398,1.3865c0.3523,0.5859,0.5285,1.2314,0.5285,1.9361
			c0,0.7052-0.1762,1.3543-0.5285,1.9472c-0.3523,0.5935-0.8323,1.0611-1.4398,1.4029c-0.6081,0.3412-1.2753,0.5121-2.0016,0.5121
			c-0.7263,0-1.3935-0.1709-2.001-0.5121c-0.6075-0.3418-1.0874-0.8094-1.4398-1.4029c-0.3529-0.5929-0.5291-1.2419-0.5291-1.9472
			c0-0.7047,0.1762-1.3502,0.5291-1.9361c0.3523-0.5864,0.8305-1.0482,1.4345-1.3865c0.604-0.3377,1.273-0.5068,2.0063-0.5068
			C120.4145,37.3223,121.0817,37.4915,121.6898,37.8292z M118.2373,38.6386c-0.4495,0.2587-0.8071,0.6093-1.0734,1.0517
			c-0.2657,0.4425-0.3992,0.9294-0.3992,1.4614c0,0.5326,0.1334,1.0213,0.3992,1.4673c0.2663,0.446,0.6239,0.8001,1.0734,1.0628
			c0.4495,0.2622,0.937,0.3933,1.462,0.3933s1.0084-0.1311,1.4509-0.3933c0.4425-0.2628,0.7948-0.6169,1.057-1.0628
			c0.2628-0.446,0.3939-0.9347,0.3939-1.4673c0-0.532-0.1311-1.019-0.3939-1.4614c-0.2622-0.4425-0.6145-0.793-1.057-1.0517
			c-0.4425-0.2593-0.9259-0.3886-1.4509-0.3886S118.6868,38.3793,118.2373,38.6386z"/>
		<path fill="#FFFFFF" d="M128.4643,38.4607c-0.3775-0.1118-0.7246-0.1674-1.0412-0.1674c-0.4384,0-0.7889,0.0843-1.0517,0.2534
			c-0.2622,0.1691-0.3939,0.4009-0.3939,0.6959c0,0.2663,0.0796,0.4834,0.2376,0.6526s0.3523,0.302,0.5823,0.3992
			c0.23,0.0972,0.5502,0.2101,0.9604,0.34c0.5104,0.158,0.9241,0.309,1.2402,0.453c0.3166,0.144,0.5864,0.3576,0.8094,0.6415
			c0.223,0.2844,0.3342,0.6602,0.3342,1.1278c0,0.4313-0.1171,0.8088-0.3506,1.1325c-0.2335,0.3237-0.5607,0.5736-0.9815,0.7497
			c-0.4208,0.1762-0.9048,0.2645-1.4509,0.2645c-0.5542,0-1.0933-0.1083-1.6183-0.3237c-0.525-0.216-0.978-0.5033-1.359-0.8633
			l0.4635-0.8955c0.3594,0.3523,0.7644,0.6239,1.2138,0.8147c0.4495,0.1908,0.8861,0.2856,1.3104,0.2856
			c0.5033,0,0.9007-0.0983,1.1922-0.2967c0.2915-0.1972,0.4366-0.4653,0.4366-0.8036c0-0.2657-0.079-0.4852-0.237-0.6578
			c-0.1586-0.1727-0.3582-0.309-0.5987-0.4103c-0.2411-0.1001-0.5665-0.2119-0.9762-0.3342
			c-0.5033-0.151-0.9136-0.2985-1.2296-0.4425c-0.3166-0.1434-0.5847-0.3558-0.8042-0.6362
			c-0.2195-0.2803-0.3289-0.6508-0.3289-1.1114c0-0.4027,0.1118-0.7585,0.3348-1.0675c0.2224-0.3096,0.5355-0.5466,0.9382-0.7123
			c0.4027-0.165,0.8703-0.2482,1.4023-0.2482c0.4536,0,0.8972,0.0667,1.3327,0.1996c0.4348,0.1334,0.8211,0.3114,1.1594,0.5343
			l-0.4313,0.9277C129.207,38.7393,128.8418,38.5719,128.4643,38.4607z"/>
	</g>
</g>
<path fill="#FFFFFF" d="M41.3501,16.6011c2.1025-2.7712,5.0256-2.7847,5.0256-2.7847s0.4348,2.6054-1.654,5.1152
	c-2.2303,2.6799-4.7653,2.2414-4.7653,2.2414S39.4804,19.0654,41.3501,16.6011z M40.2238,22.9982
	c1.0816,0,3.0891-1.4869,5.7022-1.4869c4.4979,0,6.2673,3.2005,6.2673,3.2005s-3.4608,1.7694-3.4608,6.0628
	c0,4.8433,4.3112,6.5125,4.3112,6.5125s-3.0137,8.4823-7.0843,8.4823c-1.8696,0-3.3231-1.2599-5.293-1.2599
	c-2.0075,0-3.9996,1.3069-5.2971,1.3069c-3.7171,0.0001-8.413-8.0463-8.413-14.5142c0-6.3635,3.9748-9.7018,7.703-9.7018
	C37.083,21.6005,38.9638,22.9982,40.2238,22.9982L40.2238,22.9982z"/>
</svg>
